<svg width="308" height="10" viewBox="0 0 308 10" fill="none" xmlns="http://www.w3.org/2000/svg">
<mask id="mask0_1_84" style="mask-type:luminance" maskUnits="userSpaceOnUse" x="0" y="0" width="308" height="10">
<path d="M308 0.145996H0V9.853H308V0.145996Z" fill="white"/>
</mask>
<g mask="url(#mask0_1_84)">
<path d="M9.354 0.5L0.354004 9.5" stroke="#90F462"/>
<path d="M15.354 0.5L6.354 9.5" stroke="#90F462"/>
<path d="M21.354 0.5L12.354 9.5" stroke="#90F462"/>
<path d="M27.354 0.5L18.354 9.5" stroke="#90F462"/>
<path d="M33.354 0.5L24.354 9.5" stroke="#90F462"/>
<path d="M39.354 0.5L30.354 9.5" stroke="#90F462"/>
<path d="M45.354 0.5L36.354 9.5" stroke="#90F462"/>
<path d="M51.354 0.5L42.354 9.5" stroke="#90F462"/>
<path d="M57.354 0.5L48.354 9.5" stroke="#90F462"/>
<path d="M63.354 0.5L54.354 9.5" stroke="#90F462"/>
<path d="M69.354 0.5L60.354 9.5" stroke="#90F462"/>
<path d="M75.354 0.5L66.354 9.5" stroke="#90F462"/>
<path d="M81.354 0.5L72.354 9.5" stroke="#90F462"/>
<path d="M87.354 0.5L78.354 9.5" stroke="#90F462"/>
<path d="M93.354 0.5L84.354 9.5" stroke="#90F462"/>
<path d="M99.354 0.5L90.354 9.5" stroke="#90F462"/>
<path d="M105.354 0.5L96.354 9.5" stroke="#90F462"/>
<path d="M111.354 0.5L102.354 9.5" stroke="#90F462"/>
<path d="M117.354 0.5L108.354 9.5" stroke="#90F462"/>
<path d="M123.354 0.5L114.354 9.5" stroke="#90F462"/>
<path d="M129.354 0.5L120.354 9.5" stroke="#90F462"/>
<path d="M135.354 0.5L126.354 9.5" stroke="#90F462"/>
<path d="M141.354 0.5L132.354 9.5" stroke="#90F462"/>
<path d="M147.354 0.5L138.354 9.5" stroke="#90F462"/>
<path d="M153.354 0.5L144.354 9.5" stroke="#90F462"/>
<path d="M159.354 0.5L150.354 9.5" stroke="#90F462"/>
<path d="M165.354 0.5L156.354 9.5" stroke="#90F462"/>
<path d="M171.354 0.5L162.354 9.5" stroke="#90F462"/>
<path d="M177.354 0.5L168.354 9.5" stroke="#90F462"/>
<path d="M183.354 0.5L174.354 9.5" stroke="#90F462"/>
<path d="M189.354 0.5L180.354 9.5" stroke="#90F462"/>
<path d="M195.354 0.5L186.354 9.5" stroke="#90F462"/>
<path d="M201.354 0.5L192.354 9.5" stroke="#90F462"/>
<path d="M207.354 0.5L198.354 9.5" stroke="#90F462"/>
<path d="M213.354 0.5L204.354 9.5" stroke="#90F462"/>
<path d="M219.354 0.5L210.354 9.5" stroke="#90F462"/>
<path d="M225.354 0.5L216.354 9.5" stroke="#90F462"/>
<path d="M231.354 0.5L222.354 9.5" stroke="#90F462"/>
<path d="M237.354 0.5L228.354 9.5" stroke="#90F462"/>
<path d="M243.354 0.5L234.354 9.5" stroke="#90F462"/>
<path d="M249.354 0.5L240.354 9.5" stroke="#90F462"/>
<path d="M255.354 0.5L246.354 9.5" stroke="#90F462"/>
<path d="M261.354 0.5L252.354 9.5" stroke="#90F462"/>
<path d="M267.354 0.5L258.354 9.5" stroke="#90F462"/>
<path d="M273.354 0.5L264.354 9.5" stroke="#90F462"/>
<path d="M279.354 0.5L270.354 9.5" stroke="#90F462"/>
<path d="M285.354 0.5L276.354 9.5" stroke="#90F462"/>
<path d="M291.354 0.5L282.354 9.5" stroke="#90F462"/>
<path d="M297.354 0.5L288.354 9.5" stroke="#90F462"/>
<path d="M303.354 0.5L294.354 9.5" stroke="#90F462"/>
<path d="M309.354 0.5L300.354 9.5" stroke="#90F462"/>
<path d="M315.354 0.5L306.354 9.5" stroke="#90F462"/>
</g>
</svg>
